<svg xmlns="http://www.w3.org/2000/svg" viewBox="0 0 255 40" height="36">
                        <path class="svg-typeface" d="M11.77,28.69V22.08H27.48c4.78,0,7.63-3,7.63-7.42s-2.84-7.36-7.63-7.36H6.77V39.51H0v-39H27.45c9,0,14.29,5.43,14.29,14S36.52,28.69,27.45,28.69H11.77Z" transform="translate(0 0)"></path>
                        <path class="svg-typeface" d="M47.17,39.54v-39H54v39H47.17Z" transform="translate(0 0)"></path>
                        <path class="svg-typeface" d="M67.69,11V39.54h-6.5V4.08c0-2.52,1.34-4.08,3.5-4.08a3.93,3.93,0,0,1,2.9,1.4L95.15,28.74V0.16h6.5V35.92c0,2.58-1.4,4.08-3.39,4.08a4.34,4.34,0,0,1-3.14-1.45Z" transform="translate(0 0)"></path>
                        <path class="svg-typeface" d="M126.3,39.54c-10.9,0-19-8.59-19-19.93,0-11.5,8.06-19.13,19-19.13h9.51c11.28,0,19.13,7.79,19.13,19.13s-8,19.93-19.13,19.93H126.3Zm9.51-6.83c7.2,0,12.3-5.43,12.3-12.79S143,7.3,135.81,7.3H126.3c-7,0-12.14,5.21-12.14,12.62s5.11,12.79,12.14,12.79h9.51Z" transform="translate(0 0)"></path>
                        <path class="svg-typeface" d="M178.52,39.54c-10.9,0-19-8.59-19-19.93,0-11.5,8.06-19.13,19-19.13h21.17V7.31H178.52c-7,0-12.14,5.21-12.14,12.62s5.11,12.79,12.14,12.79H195.2V22.56H177.6V16.82h24.5V39.54H178.52Z" transform="translate(0 0)"></path>
                        <path class="svg-typeface" d="M226.62,39.54V24.71L205.91,0.49h9.19l15.2,18,15.26-18h8.7L233.47,24.71V39.54h-6.85Z" transform="translate(0 0)"></path>
                     </svg>